<svg height="682pt" viewBox="-21 -21 682.66635 682" width="682pt" xmlns="http://www.w3.org/2000/svg"><path d="m60 313.457031c0 6.90625 5.59375 12.5 12.5 12.5 6.902344 0 12.5-5.59375 12.5-12.5v-18.75c0-6.902343-5.597656-12.5-12.5-12.5-6.90625 0-12.5 5.597657-12.5 12.5zm0 0"/><path d="m72.5 188.457031c6.902344 0 12.5-5.59375 12.5-12.5v-18.75c0-6.902343-5.597656-12.5-12.5-12.5-6.90625 0-12.5 5.597657-12.5 12.5v18.75c0 6.90625 5.59375 12.5 12.5 12.5zm0 0"/><path d="m60 244.707031c0 6.90625 5.59375 12.5 12.5 12.5 6.902344 0 12.5-5.59375 12.5-12.5v-18.75c0-6.902343-5.597656-12.5-12.5-12.5-6.90625 0-12.5 5.597657-12.5 12.5zm0 0"/><path d="m72.5 375.957031h18.75c6.902344 0 12.5-5.59375 12.5-12.5 0-6.902343-5.597656-12.5-12.5-12.5h-18.75c-6.90625 0-12.5 5.597657-12.5 12.5 0 6.90625 5.59375 12.5 12.5 12.5zm0 0"/><path d="m392.5 185.957031c6.902344 0 12.5-5.59375 12.5-12.5v-18.75c0-6.902343-5.597656-12.5-12.5-12.5-6.90625 0-12.5 5.597657-12.5 12.5v18.75c0 6.90625 5.59375 12.5 12.5 12.5zm0 0"/><path d="m343.75 165.957031c6.902344 0 12.5-5.59375 12.5-12.5 0-6.902343-5.597656-12.5-12.5-12.5h-18.75c-6.90625 0-12.5 5.597657-12.5 12.5 0 6.90625 5.59375 12.5 12.5 12.5zm0 0"/><path d="m137.5 140.957031h-18.75c-6.90625 0-12.5 5.597657-12.5 12.5 0 6.90625 5.59375 12.5 12.5 12.5h18.75c6.902344 0 12.5-5.59375 12.5-12.5 0-6.902343-5.597656-12.5-12.5-12.5zm0 0"/><path d="m275 165.957031c6.902344 0 12.5-5.59375 12.5-12.5 0-6.902343-5.597656-12.5-12.5-12.5h-18.75c-6.90625 0-12.5 5.597657-12.5 12.5 0 6.90625 5.59375 12.5 12.5 12.5zm0 0"/><path d="m380 242.207031c0 6.90625 5.59375 12.5 12.5 12.5 6.902344 0 12.5-5.59375 12.5-12.5v-18.75c0-6.902343-5.597656-12.5-12.5-12.5-6.90625 0-12.5 5.597657-12.5 12.5zm0 0"/><path d="m206.25 165.957031c6.902344 0 12.5-5.59375 12.5-12.5 0-6.902343-5.597656-12.5-12.5-12.5h-18.75c-6.90625 0-12.5 5.597657-12.5 12.5 0 6.90625 5.59375 12.5 12.5 12.5zm0 0"/><path d="m128.75 363.457031c0 6.90625 5.59375 12.5 12.5 12.5h18.75c6.902344 0 12.5-5.59375 12.5-12.5 0-6.902343-5.597656-12.5-12.5-12.5h-18.75c-6.90625 0-12.5 5.597657-12.5 12.5zm0 0"/><path d="m405.414062 40.644531h-172.914062c-6.90625 0-12.5 5.597657-12.5 12.5 0 6.90625 5.59375 12.5 12.5 12.5h172.914062c6.90625 0 12.5-5.59375 12.5-12.5 0-6.902343-5.59375-12.5-12.5-12.5zm0 0"/><path d="m108.535156 40.652344c-3.285156 0-6.507812 1.320312-8.832031 3.660156-2.332031 2.324219-3.667969 5.539062-3.667969 8.839844 0 3.285156 1.335938 6.511718 3.667969 8.835937 2.324219 2.324219 5.546875 3.664063 8.832031 3.664063 3.289063 0 6.511719-1.339844 8.835938-3.664063 2.324218-2.324219 3.664062-5.550781 3.664062-8.835937 0-3.300782-1.332031-6.515625-3.664062-8.839844-2.324219-2.339844-5.535156-3.660156-8.835938-3.660156zm0 0"/><path d="m57.089844 40.652344c-3.292969 0-6.515625 1.320312-8.839844 3.660156-2.335938 2.324219-3.660156 5.550781-3.660156 8.839844 0 3.285156 1.324218 6.511718 3.660156 8.835937 2.324219 2.324219 5.539062 3.664063 8.839844 3.664063 3.285156 0 6.5-1.339844 8.832031-3.664063 2.324219-2.324219 3.667969-5.550781 3.667969-8.835937 0-3.289063-1.339844-6.515625-3.667969-8.839844-2.332031-2.339844-5.546875-3.660156-8.832031-3.660156zm0 0"/><path d="m160 40.652344c-3.285156 0-6.515625 1.335937-8.839844 3.660156-2.324218 2.324219-3.660156 5.539062-3.660156 8.839844 0 3.285156 1.335938 6.511718 3.660156 8.835937 2.324219 2.324219 5.554688 3.664063 8.839844 3.664063s6.511719-1.339844 8.835938-3.664063c2.324218-2.324219 3.664062-5.550781 3.664062-8.835937 0-3.300782-1.339844-6.515625-3.664062-8.839844-2.324219-2.324219-5.550782-3.660156-8.835938-3.660156zm0 0"/><path d="m12.5 375.964844c3.285156 0 6.511719-1.339844 8.835938-3.664063 2.324218-2.324219 3.664062-5.550781 3.664062-8.835937 0-3.289063-1.339844-6.515625-3.664062-8.839844-2.324219-2.324219-5.550782-3.660156-8.835938-3.660156s-6.515625 1.335937-8.839844 3.660156c-2.324218 2.324219-3.660156 5.550781-3.660156 8.839844 0 3.285156 1.335938 6.511718 3.660156 8.835937 2.324219 2.324219 5.554688 3.664063 8.839844 3.664063zm0 0"/><path d="m636.335938 570.410156-64.433594-64.433594 44.394531-19.191406c4.882813-2.109375 7.898437-7.082031 7.507813-12.382812-.390626-5.308594-4.09375-9.785156-9.234376-11.164063l-42.070312-11.273437v-151.46875c0-6.90625-5.597656-12.5-12.5-12.5h-95v-250.164063c0-20.675781-16.820312-37.5-37.5-37.5h-390c-20.679688 0-37.5 16.824219-37.5 37.5v275c0 6.90625 5.59375 12.5 12.5 12.5 6.902344 0 12.5-5.59375 12.5-12.5v-206.875h415v182.039063h-200c-6.90625 0-12.5 5.59375-12.5 12.5v50.460937h-17.5c-6.90625 0-12.5 5.597657-12.5 12.5 0 6.90625 5.59375 12.5 12.5 12.5h17.5v63.75h-190c-6.894531 0-12.5-5.605469-12.5-12.5v-14.375c0-6.902343-5.597656-12.5-12.5-12.5-6.90625 0-12.5 5.597657-12.5 12.5v14.375c0 20.679688 16.820312 37.5 37.5 37.5h190v45.785157c0 6.902343 5.59375 12.5 12.5 12.5h198.296875l24.621094 91.894531c1.378906 5.136719 5.855469 8.84375 11.164062 9.230469 5.300781.394531 10.273438-2.621094 12.386719-7.503907l19.195312-44.394531 64.433594 64.433594c2.34375 2.34375 5.523438 3.660156 8.835938 3.660156 3.316406 0 6.496094-1.316406 8.839844-3.660156l48.5625-48.5625c4.882812-4.882813 4.882812-12.796875 0-17.679688zm-611.335938-489.453125v-43.125c0-6.894531 5.605469-12.5 12.5-12.5h390c6.894531 0 12.5 5.605469 12.5 12.5v43.125zm227.5 417.035157v-184.996094h295v132.269531l-119.175781-31.933594c-4.316407-1.15625-8.914063.078125-12.074219 3.238281-3.15625 3.152344-4.390625 7.757813-3.234375 12.074219l18.582031 69.347657zm326.433594 112.144531-68.605469-68.609375c-2.371094-2.363282-5.554687-3.660156-8.839844-3.660156-.777343 0-1.5625.074218-2.34375.222656-4.066406.777344-7.484375 3.515625-9.128906 7.316406l-12.242187 28.320312-35.003907-130.640624 130.636719 35.007812-28.3125 12.238281c-3.800781 1.640625-6.539062 5.058594-7.316406 9.125-.777344 4.070313.507812 8.257813 3.4375 11.1875l68.609375 68.609375zm0 0"/></svg>